<svg xmlns="http://www.w3.org/2000/svg" xmlns:xlink="http://www.w3.org/1999/xlink" version="1.1" style="enable-background:new 0 0 512 512;" xml:space="preserve" width="512" height="512"><rect id="backgroundrect" width="100%" height="100%" x="0" y="0" fill="none" stroke="none"/>
<g class="currentLayer" style=""><title>Layer 1</title><g id="svg_1" class="" fill="#f9a602" fill-opacity="1">
	<g id="svg_2" fill="#f9a602" fill-opacity="1">
		<path d="M435.204,126.967C387.398,94.1,324.11,76,257,76c-67.206,0-130.824,18.084-179.138,50.922C27.652,161.048,0,206.889,0,256    c0,49.111,27.652,94.952,77.862,129.078C126.176,417.916,189.794,436,257,436c67.11,0,130.398-18.1,178.204-50.967    C484.727,350.986,512,305.161,512,256S484.727,161.014,435.204,126.967z M418.208,360.312C375.354,389.774,318.103,406,257,406    c-61.254,0-118.884-16.242-162.273-45.733C52.986,331.898,30,294.868,30,256s22.986-75.898,64.727-104.267    C138.116,122.242,195.746,106,257,106c61.103,0,118.354,16.226,161.208,45.688C459.345,179.97,482,217.015,482,256    S459.345,332.03,418.208,360.312z" id="svg_3" fill="#f9a602" fill-opacity="1"/>
	</g>
</g><g id="svg_4">
</g><g id="svg_5">
</g><g id="svg_6">
</g><g id="svg_7">
</g><g id="svg_8">
</g><g id="svg_9">
</g><g id="svg_10">
</g><g id="svg_11">
</g><g id="svg_12">
</g><g id="svg_13">
</g><g id="svg_14">
</g><g id="svg_15">
</g><g id="svg_16">
</g><g id="svg_17">
</g><g id="svg_18">
</g></g></svg>